<svg xmlns="http://www.w3.org/2000/svg" width="805" height="600"><rect width="805" height="600" x="0" y="0" fill="#FFFFFF" id="backgorund"/><g id="viz"><g transform="translate(0,0)"><g transform="translate(50,20)"><g class="bars"><rect id="undefined - Vietnam" x="26.985769728331206" y="0" height="560" width="44.8156532988357" fill="#1f77b4"/><rect id="undefined - Malaysia" x="98.78719275549808" y="93.33333333333331" height="466.6666666666667" width="44.8156532988357" fill="#1f77b4"/><rect id="undefined - Korea" x="170.58861578266496" y="373.33333333333337" height="186.66666666666663" width="44.8156532988357" fill="#1f77b4"/><rect id="undefined - Agentina" x="242.39003880983182" y="373.33333333333337" height="186.66666666666663" width="44.8156532988357" fill="#1f77b4"/><rect id="undefined - Russian" x="314.1914618369987" y="373.33333333333337" height="186.66666666666663" width="44.8156532988357" fill="#1f77b4"/><rect id="undefined - Venezuela" x="385.9928848641656" y="466.6666666666667" height="93.33333333333331" width="44.8156532988357" fill="#1f77b4"/><rect id="undefined - Indonesia" x="457.79430789133244" y="466.6666666666667" height="93.33333333333331" width="44.8156532988357" fill="#1f77b4"/><rect id="undefined - Egypt" x="529.5957309184994" y="466.6666666666667" height="93.33333333333331" width="44.8156532988357" fill="#1f77b4"/><rect id="undefined - Tajikistan" x="601.3971539456662" y="466.6666666666667" height="93.33333333333331" width="44.8156532988357" fill="#1f77b4"/><rect id="undefined - Thailand" x="673.198576972833" y="466.6666666666667" height="93.33333333333331" width="44.8156532988357" fill="#1f77b4"/></g><g id="xAxis" transform="translate(0,560)" fill="none" font-size="10" font-family="sans-serif" text-anchor="middle"><path class="domain" stroke="currentColor" d="M0,0H745"/><g class="tick" opacity="1" transform="translate(49.393596377749056,0)"><line stroke="currentColor" y2="6"/><text fill="currentColor" y="9" dy="0.71em">Vietnam</text></g><g class="tick" opacity="1" transform="translate(121.19501940491594,0)"><line stroke="currentColor" y2="6"/><text fill="currentColor" y="9" dy="0.71em">Malaysia</text></g><g class="tick" opacity="1" transform="translate(192.9964424320828,0)"><line stroke="currentColor" y2="6"/><text fill="currentColor" y="9" dy="0.71em">Korea</text></g><g class="tick" opacity="1" transform="translate(264.7978654592497,0)"><line stroke="currentColor" y2="6"/><text fill="currentColor" y="9" dy="0.71em">Agentina</text></g><g class="tick" opacity="1" transform="translate(336.5992884864166,0)"><line stroke="currentColor" y2="6"/><text fill="currentColor" y="9" dy="0.71em">Russian</text></g><g class="tick" opacity="1" transform="translate(408.4007115135835,0)"><line stroke="currentColor" y2="6"/><text fill="currentColor" y="9" dy="0.71em">Venezuela</text></g><g class="tick" opacity="1" transform="translate(480.2021345407503,0)"><line stroke="currentColor" y2="6"/><text fill="currentColor" y="9" dy="0.71em">Indonesia</text></g><g class="tick" opacity="1" transform="translate(552.0035575679173,0)"><line stroke="currentColor" y2="6"/><text fill="currentColor" y="9" dy="0.71em">Egypt</text></g><g class="tick" opacity="1" transform="translate(623.8049805950841,0)"><line stroke="currentColor" y2="6"/><text fill="currentColor" y="9" dy="0.71em">Tajikistan</text></g><g class="tick" opacity="1" transform="translate(695.6064036222509,0)"><line stroke="currentColor" y2="6"/><text fill="currentColor" y="9" dy="0.71em">Thailand</text></g><text x="745" y="-4" text-anchor="end" style="font-family: Arial, sans-serif; font-size: 12px; fill: rgb(123, 123, 123); font-weight: bold;">from</text></g><g id="yAxis" fill="none" font-size="10" font-family="sans-serif" text-anchor="end"><path class="domain" stroke="currentColor" d="M-6,560H0V0H-6"/><g class="tick" opacity="1" transform="translate(0,560)"><line stroke="currentColor" x2="-6"/><text fill="currentColor" x="-9" dy="0.32em">0.0</text></g><g class="tick" opacity="1" transform="translate(0,513.3333333333333)"><line stroke="currentColor" x2="-6"/><text fill="currentColor" x="-9" dy="0.32em">0.5</text></g><g class="tick" opacity="1" transform="translate(0,466.6666666666667)"><line stroke="currentColor" x2="-6"/><text fill="currentColor" x="-9" dy="0.32em">1.0</text></g><g class="tick" opacity="1" transform="translate(0,420)"><line stroke="currentColor" x2="-6"/><text fill="currentColor" x="-9" dy="0.32em">1.5</text></g><g class="tick" opacity="1" transform="translate(0,373.33333333333337)"><line stroke="currentColor" x2="-6"/><text fill="currentColor" x="-9" dy="0.32em">2.0</text></g><g class="tick" opacity="1" transform="translate(0,326.66666666666663)"><line stroke="currentColor" x2="-6"/><text fill="currentColor" x="-9" dy="0.32em">2.5</text></g><g class="tick" opacity="1" transform="translate(0,280)"><line stroke="currentColor" x2="-6"/><text fill="currentColor" x="-9" dy="0.32em">3.0</text></g><g class="tick" opacity="1" transform="translate(0,233.33333333333331)"><line stroke="currentColor" x2="-6"/><text fill="currentColor" x="-9" dy="0.32em">3.5</text></g><g class="tick" opacity="1" transform="translate(0,186.66666666666669)"><line stroke="currentColor" x2="-6"/><text fill="currentColor" x="-9" dy="0.32em">4.0</text></g><g class="tick" opacity="1" transform="translate(0,140)"><line stroke="currentColor" x2="-6"/><text fill="currentColor" x="-9" dy="0.32em">4.5</text></g><g class="tick" opacity="1" transform="translate(0,93.33333333333331)"><line stroke="currentColor" x2="-6"/><text fill="currentColor" x="-9" dy="0.32em">5.0</text></g><g class="tick" opacity="1" transform="translate(0,46.666666666666686)"><line stroke="currentColor" x2="-6"/><text fill="currentColor" x="-9" dy="0.32em">5.5</text></g><g class="tick" opacity="1" transform="translate(0,0)"><line stroke="currentColor" x2="-6"/><text fill="currentColor" x="-9" dy="0.32em">6.0</text></g><text x="4" text-anchor="start" dominant-baseline="hanging" style="font-family: Arial, sans-serif; font-size: 12px; fill: rgb(123, 123, 123); font-weight: bold;">data [sum]</text></g></g><text y="4" x="4" style="font-family: Arial, sans-serif; font-size: 12px; fill: black; font-weight: bold; dominant-baseline: hanging;"/></g></g></svg>